<svg xmlns="http://www.w3.org/2000/svg" width="516" height="380" viewBox="0 0 516 380">
  <defs>
    <linearGradient id="heroGrad" x1="0%" y1="0%" x2="100%" y2="100%">
      <stop offset="0%" style="stop-color:#6C5CE7"/>
      <stop offset="100%" style="stop-color:#8B7CF7"/>
    </linearGradient>
    <linearGradient id="cardHover" x1="0%" y1="0%" x2="0%" y2="100%">
      <stop offset="0%" style="stop-color:#fff"/>
      <stop offset="100%" style="stop-color:#F8FAFC"/>
    </linearGradient>
  </defs>

  <!-- Background -->
  <rect width="516" height="380" fill="#F8FAFC"/>

  <!-- === HEADER === -->
  <rect width="516" height="34" fill="#fff"/>
  <rect x="0" y="34" width="516" height="1" fill="#E2E8F0"/>

  <!-- Logo P -->
  <rect x="12" y="5" width="24" height="24" rx="6" fill="#6C5CE7"/>
  <text x="24" y="22" text-anchor="middle" fill="#fff" font-family="Inter,sans-serif" font-size="14" font-weight="800">P</text>

  <!-- Site name -->
  <text x="42" y="17" fill="#0F172A" font-family="Inter,sans-serif" font-size="11" font-weight="700">PALATOVDA</text>
  <text x="42" y="27" fill="#94A3B8" font-family="Inter,sans-serif" font-size="6.5" font-weight="600" letter-spacing="1">МАРКЕТПЛЕЙС УСЛУГ</text>

  <!-- Header buttons -->
  <rect x="438" y="7" width="36" height="20" rx="4" fill="none" stroke="#E2E8F0" stroke-width="1"/>
  <text x="456" y="20" text-anchor="middle" fill="#64748B" font-family="Inter,sans-serif" font-size="7" font-weight="600">Войти</text>

  <rect x="478" y="7" width="30" height="20" rx="4" fill="#6C5CE7"/>
  <text x="493" y="20" text-anchor="middle" fill="#fff" font-family="Inter,sans-serif" font-size="9" font-weight="700">+</text>

  <rect x="392" y="7" width="42" height="20" rx="4" fill="none" stroke="#E2E8F0" stroke-width="1"/>
  <text x="413" y="20" text-anchor="middle" fill="#64748B" font-family="Inter,sans-serif" font-size="5.5" font-weight="600">Специалистом</text>

  <!-- === HERO SECTION === -->
  <rect width="516" height="90" fill="url(#heroGrad)"/>

  <!-- Hero pattern overlay -->
  <g opacity="0.05">
    <path d="M0 0h60v60H0zm30 30v-8h-8v8h-8v8h8v8h8v-8h8v-8h-8z" fill="#fff"/>
  </g>

  <!-- Hero title -->
  <text x="258" y="50" text-anchor="middle" fill="#fff" font-family="Inter,sans-serif" font-size="14" font-weight="800">Найдите лучшего специалиста</text>
  <text x="258" y="64" text-anchor="middle" fill="#fff" font-family="Inter,sans-serif" font-size="7.5" opacity="0.9">Более 2 500 проверенных специалистов готовы помочь вам</text>

  <!-- Hero search bar -->
  <rect x="98" y="72" width="320" height="24" rx="6" fill="#fff"/>
  <text x="120" y="87" fill="#94A3B8" font-family="Inter,sans-serif" font-size="8">🔍 Какую услугу вы ищете?</text>
  <rect x="354" y="74" width="54" height="20" rx="4" fill="#6C5CE7"/>
  <text x="381" y="87" text-anchor="middle" fill="#fff" font-family="Inter,sans-serif" font-size="7.5" font-weight="600">Найти</text>

  <!-- Hero tags -->
  <g font-size="6.5" fill="#fff" opacity="0.85" font-family="Inter,sans-serif">
    <rect x="118" y="98" rx="8" width="72" height="16" fill="rgba(255,255,255,.15)"/>
    <text x="154" y="109" text-anchor="middle">Найти врача</text>
    <rect x="196" y="98" rx="8" width="72" height="16" fill="rgba(255,255,255,.15)"/>
    <text x="232" y="109" text-anchor="middle">Найти юриста</text>
    <rect x="274" y="98" rx="8" width="72" height="16" fill="rgba(255,255,255,.15)"/>
    <text x="310" y="109" text-anchor="middle">Создать сайт</text>
    <rect x="352" y="98" rx="8" width="72" height="16" fill="rgba(255,255,255,.15)"/>
    <text x="388" y="109" text-anchor="middle">Сделать ремонт</text>
  </g>

  <!-- === CATEGORIES SECTION === -->
  <text x="16" y="130" fill="#0F172A" font-family="Inter,sans-serif" font-size="9" font-weight="700">Категории услуг</text>
  <text x="16" y="140" fill="#64748B" font-family="Inter,sans-serif" font-size="6.5">Выберите категорию и найдите своего специалиста</text>

  <!-- Category cards: 4 columns x 2 rows -->
  <!-- Row 1 -->
  <g>
    <!-- Медицина -->
    <rect x="12" y="148" width="115" height="42" rx="6" fill="#fff" stroke="#E2E8F0" stroke-width="0.5"/>
    <circle cx="32" cy="164" r="12" fill="#6C5CE722"/>
    <text x="32" y="168" text-anchor="middle" fill="#6C5CE7" font-size="13">🏥</text>
    <text x="50" y="162" fill="#0F172A" font-family="Inter,sans-serif" font-size="7" font-weight="600">Медицина</text>
    <text x="50" y="172" fill="#94A3B8" font-family="Inter,sans-serif" font-size="6">284 специалистов</text>

    <!-- IT -->
    <rect x="135" y="148" width="115" height="42" rx="6" fill="#fff" stroke="#E2E8F0" stroke-width="0.5"/>
    <circle cx="155" cy="164" r="12" fill="#3B82F622"/>
    <text x="155" y="168" text-anchor="middle" fill="#3B82F6" font-size="13">💻</text>
    <text x="173" y="162" fill="#0F172A" font-family="Inter,sans-serif" font-size="7" font-weight="600">IT и разработка</text>
    <text x="173" y="172" fill="#94A3B8" font-family="Inter,sans-serif" font-size="6">562 специалистов</text>

    <!-- Дизайн -->
    <rect x="258" y="148" width="115" height="42" rx="6" fill="#fff" stroke="#E2E8F0" stroke-width="0.5"/>
    <circle cx="278" cy="164" r="12" fill="#EC489922"/>
    <text x="278" y="168" text-anchor="middle" fill="#EC4899" font-size="13">🎨</text>
    <text x="296" y="162" fill="#0F172A" font-family="Inter,sans-serif" font-size="7" font-weight="600">Дизайн и креатив</text>
    <text x="296" y="172" fill="#94A3B8" font-family="Inter,sans-serif" font-size="6">341 специалистов</text>

    <!-- Красота -->
    <rect x="381" y="148" width="123" height="42" rx="6" fill="#fff" stroke="#E2E8F0" stroke-width="0.5"/>
    <circle cx="401" cy="164" r="12" fill="#F59E0B22"/>
    <text x="401" y="168" text-anchor="middle" fill="#F59E0B" font-size="13">💅</text>
    <text x="419" y="162" fill="#0F172A" font-family="Inter,sans-serif" font-size="7" font-weight="600">Красота и здоровье</text>
    <text x="419" y="172" fill="#94A3B8" font-family="Inter,sans-serif" font-size="6">198 специалистов</text>
  </g>

  <!-- Row 2 -->
  <g>
    <rect x="12" y="196" width="115" height="42" rx="6" fill="#fff" stroke="#E2E8F0" stroke-width="0.5"/>
    <circle cx="32" cy="212" r="12" fill="#10B98122"/>
    <text x="32" y="216" text-anchor="middle" fill="#10B981" font-size="13">🔧</text>
    <text x="50" y="210" fill="#0F172A" font-family="Inter,sans-serif" font-size="7" font-weight="600">Ремонт и строит.</text>
    <text x="50" y="220" fill="#94A3B8" font-family="Inter,sans-serif" font-size="6">415 специалистов</text>

    <rect x="135" y="196" width="115" height="42" rx="6" fill="#fff" stroke="#E2E8F0" stroke-width="0.5"/>
    <circle cx="155" cy="212" r="12" fill="#EF444422"/>
    <text x="155" y="216" text-anchor="middle" fill="#EF4444" font-size="13">📚</text>
    <text x="173" y="210" fill="#0F172A" font-family="Inter,sans-serif" font-size="7" font-weight="600">Обучение и курсы</text>
    <text x="173" y="220" fill="#94A3B8" font-family="Inter,sans-serif" font-size="6">227 специалистов</text>

    <rect x="258" y="196" width="115" height="42" rx="6" fill="#fff" stroke="#E2E8F0" stroke-width="0.5"/>
    <circle cx="278" cy="212" r="12" fill="#8B5CF622"/>
    <text x="278" y="216" text-anchor="middle" fill="#8B5CF6" font-size="13">⚖️</text>
    <text x="296" y="210" fill="#0F172A" font-family="Inter,sans-serif" font-size="7" font-weight="600">Юридические услуги</text>
    <text x="296" y="220" fill="#94A3B8" font-family="Inter,sans-serif" font-size="6">156 специалистов</text>

    <rect x="381" y="196" width="123" height="42" rx="6" fill="#fff" stroke="#E2E8F0" stroke-width="0.5"/>
    <circle cx="401" cy="212" r="12" fill="#14B8A622"/>
    <text x="401" y="216" text-anchor="middle" fill="#14B8A6" font-size="13">💡</text>
    <text x="419" y="210" fill="#0F172A" font-family="Inter,sans-serif" font-size="7" font-weight="600">Консультации</text>
    <text x="419" y="220" fill="#94A3B8" font-family="Inter,sans-serif" font-size="6">189 специалистов</text>
  </g>

  <!-- === SPECIALISTS SECTION === -->
  <text x="16" y="253" fill="#0F172A" font-family="Inter,sans-serif" font-size="9" font-weight="700">Популярные специалисты</text>
  <text x="16" y="263" fill="#64748B" font-family="Inter,sans-serif" font-size="6.5">Лучшие специалисты с высоким рейтингом</text>

  <!-- Specialist cards - row of 4 -->
  <g>
    <!-- Card 1: Александр Иванов -->
    <rect x="12" y="270" width="115" height="70" rx="6" fill="#fff" stroke="#E2E8F0" stroke-width="0.5"/>
    <circle cx="30" cy="285" r="10" fill="#6C5CE7"/>
    <text x="30" y="289" text-anchor="middle" fill="#fff" font-family="Inter,sans-serif" font-size="8" font-weight="700">АИ</text>
    <text x="45" y="284" fill="#0F172A" font-family="Inter,sans-serif" font-size="6.5" font-weight="600">Александр И.</text>
    <text x="45" y="292" fill="#64748B" font-family="Inter,sans-serif" font-size="5.5">Врач-терапевт</text>
    <!-- Stars -->
    <text x="16" y="305" fill="#F59E0B" font-size="7">★★★★★</text>
    <text x="51" y="305" fill="#94A3B8" font-family="Inter,sans-serif" font-size="5.5">4.8 · 124</text>
    <!-- Tags -->
    <rect x="16" y="310" rx="4" width="34" height="12" fill="#EEEAFF"/>
    <text x="33" y="319" text-anchor="middle" fill="#6C5CE7" font-family="Inter,sans-serif" font-size="5">Терапия</text>
    <rect x="54" y="310" rx="4" width="34" height="12" fill="#EEEAFF"/>
    <text x="71" y="319" text-anchor="middle" fill="#6C5CE7" font-family="Inter,sans-serif" font-size="5">Диагностика</text>
    <!-- Price -->
    <text x="16" y="333" fill="#6C5CE7" font-family="Inter,sans-serif" font-size="7" font-weight="700">от 5 000 ₽</text>

    <!-- Card 2: Екатерина Смирнова -->
    <rect x="135" y="270" width="115" height="70" rx="6" fill="#fff" stroke="#E2E8F0" stroke-width="0.5"/>
    <circle cx="153" cy="285" r="10" fill="#3B82F6"/>
    <text x="153" y="289" text-anchor="middle" fill="#fff" font-family="Inter,sans-serif" font-size="8" font-weight="700">ЕС</text>
    <text x="168" y="284" fill="#0F172A" font-family="Inter,sans-serif" font-size="6.5" font-weight="600">Екатерина С.</text>
    <text x="168" y="292" fill="#64748B" font-family="Inter,sans-serif" font-size="5.5">Frontend-разраб.</text>
    <text x="139" y="305" fill="#F59E0B" font-size="7">★★★★★</text>
    <text x="174" y="305" fill="#94A3B8" font-family="Inter,sans-serif" font-size="5.5">4.9 · 89</text>
    <rect x="139" y="310" rx="4" width="34" height="12" fill="#EEEAFF"/>
    <text x="156" y="319" text-anchor="middle" fill="#6C5CE7" font-family="Inter,sans-serif" font-size="5">React</text>
    <rect x="177" y="310" rx="4" width="34" height="12" fill="#EEEAFF"/>
    <text x="194" y="319" text-anchor="middle" fill="#6C5CE7" font-family="Inter,sans-serif" font-size="5">Next.js</text>
    <text x="139" y="333" fill="#6C5CE7" font-family="Inter,sans-serif" font-size="7" font-weight="700">от 3 000 ₽</text>

    <!-- Card 3: Дмитрий Петров -->
    <rect x="258" y="270" width="115" height="70" rx="6" fill="#fff" stroke="#E2E8F0" stroke-width="0.5"/>
    <circle cx="276" cy="285" r="10" fill="#EC4899"/>
    <text x="276" y="289" text-anchor="middle" fill="#fff" font-family="Inter,sans-serif" font-size="8" font-weight="700">ДП</text>
    <text x="291" y="284" fill="#0F172A" font-family="Inter,sans-serif" font-size="6.5" font-weight="600">Дмитрий П.</text>
    <text x="291" y="292" fill="#64748B" font-family="Inter,sans-serif" font-size="5.5">UX/UI Дизайнер</text>
    <text x="262" y="305" fill="#F59E0B" font-size="7">★★★★★</text>
    <text x="297" y="305" fill="#94A3B8" font-family="Inter,sans-serif" font-size="5.5">4.7 · 67</text>
    <rect x="262" y="310" rx="4" width="34" height="12" fill="#EEEAFF"/>
    <text x="279" y="319" text-anchor="middle" fill="#6C5CE7" font-family="Inter,sans-serif" font-size="5">Figma</text>
    <rect x="300" y="310" rx="4" width="34" height="12" fill="#EEEAFF"/>
    <text x="317" y="319" text-anchor="middle" fill="#6C5CE7" font-family="Inter,sans-serif" font-size="5">UX</text>
    <text x="262" y="333" fill="#6C5CE7" font-family="Inter,sans-serif" font-size="7" font-weight="700">от 4 000 ₽</text>

    <!-- Card 4: Анна Кузнецова -->
    <rect x="381" y="270" width="123" height="70" rx="6" fill="#fff" stroke="#E2E8F0" stroke-width="0.5"/>
    <circle cx="399" cy="285" r="10" fill="#F59E0B"/>
    <text x="399" y="289" text-anchor="middle" fill="#fff" font-family="Inter,sans-serif" font-size="8" font-weight="700">АК</text>
    <text x="414" y="284" fill="#0F172A" font-family="Inter,sans-serif" font-size="6.5" font-weight="600">Анна К.</text>
    <text x="414" y="292" fill="#64748B" font-family="Inter,sans-serif" font-size="5.5">Косметолог</text>
    <text x="385" y="305" fill="#F59E0B" font-size="7">★★★★★</text>
    <text x="420" y="305" fill="#94A3B8" font-family="Inter,sans-serif" font-size="5.5">4.9 · 203</text>
    <rect x="385" y="310" rx="4" width="34" height="12" fill="#EEEAFF"/>
    <text x="402" y="319" text-anchor="middle" fill="#6C5CE7" font-family="Inter,sans-serif" font-size="5">Чистка</text>
    <rect x="423" y="310" rx="4" width="34" height="12" fill="#EEEAFF"/>
    <text x="440" y="319" text-anchor="middle" fill="#6C5CE7" font-family="Inter,sans-serif" font-size="5">Уход</text>
    <text x="385" y="333" fill="#6C5CE7" font-family="Inter,sans-serif" font-size="7" font-weight="700">от 3 500 ₽</text>
  </g>

  <!-- Bottom fade hint -->
  <rect x="0" y="360" width="516" height="20" fill="#F8FAFC"/>
</svg>
